<svg width="43" height="65" viewBox="0 0 43 65" fill="none" xmlns="http://www.w3.org/2000/svg">
<path d="M18.718 41.9301C19.6354 41.9301 20.5723 41.9107 21.4897 41.8913C22.407 41.9107 23.344 41.9301 24.2613 41.9301C24.6425 41.9301 24.9404 41.8328 25.1454 41.6236C25.5565 41.2041 25.0076 40.6241 24.421 40.5955C24.2511 40.5872 24.0843 40.5787 23.9206 40.5692C23.7619 40.5599 23.5782 40.4593 23.5782 40.3003C23.7538 38.6898 23.7538 38.6898 22.0362 38.6704C21.9581 38.6704 21.8605 38.6704 21.7824 38.6704C21.6848 38.6704 21.5873 38.6704 21.4897 38.6704C21.3921 38.6704 21.2945 38.6704 21.1969 38.6704C21.1188 38.6704 21.0212 38.6704 20.9431 38.6704C19.2255 38.6898 19.2255 38.6898 19.4011 40.3003C19.4011 40.4582 19.2162 40.556 19.0584 40.5628C18.8896 40.5701 18.7174 40.5787 18.5419 40.5883C17.9644 40.6199 17.4266 41.189 17.8184 41.6145C18.0238 41.8375 18.3271 41.9401 18.718 41.9301Z" fill="#7AC9A4"/>
<path d="M18.9913 38.2238C19.8306 38.2044 20.6699 38.185 21.4897 38.1656C22.329 38.185 23.1683 38.2044 23.9881 38.2238C24.4984 38.2371 24.9163 38.1586 25.1656 37.8113C25.3971 37.4888 25.1338 37.098 24.7461 37.0128C24.3428 36.9241 24.1108 36.4999 23.9572 36.1166C23.7572 35.618 23.1229 35.5901 22.4461 35.6044C22.1956 35.6044 21.9641 35.6044 21.7141 35.6044C21.7088 35.6044 21.7044 35.6 21.7044 35.5947C21.7044 35.5893 21.7001 35.585 21.6947 35.585C21.6214 35.585 21.5645 35.585 21.4897 35.585C21.4149 35.585 21.358 35.585 21.2847 35.585C21.2794 35.585 21.275 35.5893 21.275 35.5947C21.275 35.6 21.2706 35.6044 21.2653 35.6044C21.0153 35.6049 20.7838 35.6235 20.5333 35.6044C19.8565 35.5901 19.2222 35.618 19.0223 36.1166C18.8686 36.4999 18.6366 36.9241 18.2333 37.0128C17.8456 37.098 17.5832 37.4891 17.8168 37.8101C18.0704 38.1584 18.4938 38.2371 18.9913 38.2238Z" fill="#7AC9A4"/>
<path d="M18.8937 34.9451C19.7525 34.9645 20.6308 34.9645 21.4897 34.9451C22.368 34.9645 23.2268 34.9645 24.0857 34.9451C24.0988 34.9446 24.1119 34.9437 24.125 34.9426C24.864 34.8766 24.6939 34.0807 24.0073 33.7994C23.3514 33.5308 22.99 32.481 22.2812 32.481C22.1014 32.481 21.9224 32.481 21.7434 32.481C21.5677 32.481 21.3921 32.481 21.2164 32.481C21.0395 32.481 20.8611 32.481 20.6816 32.481C19.9713 32.481 19.6081 33.5327 18.9502 33.8004C18.263 34.08 18.091 34.8835 18.8305 34.9426C18.8515 34.9443 18.8726 34.9451 18.8937 34.9451Z" fill="#7AC9A4"/>
<path d="M21.236 28.7355C21.3141 28.7355 21.4117 28.7355 21.4897 28.7355C21.5678 28.7355 21.6654 28.7355 21.7435 28.7355C22.6511 28.7138 23.5342 28.6312 24.2006 28.4876C24.7502 28.3693 24.6873 27.8439 24.1556 27.6613C24.1117 27.6462 24.0676 27.631 24.0233 27.6156C23.8115 27.5422 23.6681 27.393 23.6425 27.1704C23.6092 26.8816 23.3585 26.6206 23.0678 26.6206C22.6202 26.6206 22.1772 26.6206 21.724 26.6206C21.5483 26.6206 21.3726 26.6206 21.197 26.6206C20.7478 26.6206 20.3086 26.6206 19.8651 26.6206C19.5676 26.6206 19.3168 26.886 19.2855 27.1818C19.2625 27.3994 19.1139 27.5352 18.9066 27.6048C18.8734 27.616 18.8403 27.6272 18.8074 27.6384C18.274 27.8196 18.2222 28.3721 18.7734 28.4886C19.4495 28.6315 20.3305 28.7138 21.236 28.7355Z" fill="#7AC9A4"/>
<path d="M21.685 23.167C21.6265 23.167 21.5484 23.167 21.4898 23.167C21.4313 23.167 21.3532 23.167 21.2947 23.167C21.2751 23.167 21.2556 23.167 21.2166 23.167C20.9043 23.167 20.592 23.1864 20.2992 23.2252C20.0259 23.2446 19.5965 23.5939 19.577 23.8073C19.5575 24.4282 19.2647 24.6222 18.7377 24.7774C18.2801 24.9174 18.4563 25.7207 18.9274 25.8044C19.0025 25.8178 19.0751 25.8252 19.1476 25.8252C19.8307 25.8446 20.5334 25.8446 21.2166 25.864C21.2947 25.864 21.3922 25.864 21.4703 25.864C21.5484 25.864 21.646 25.864 21.7241 25.864C22.4072 25.864 23.1099 25.8446 23.7931 25.8252C23.8656 25.8252 23.9381 25.8178 24.0132 25.8044C24.4843 25.7207 24.6605 24.9174 24.203 24.7774C23.676 24.6222 23.3832 24.4282 23.3637 23.8073C23.3637 23.5939 22.9147 23.2446 22.6415 23.2252C22.3292 23.1864 22.0364 23.167 21.7241 23.167C21.7436 23.167 21.7241 23.167 21.685 23.167Z" fill="#7AC9A4"/>
<path d="M19.6929 1.76567C20.1916 1.88007 20.6903 1.97574 21.2076 2.03426C21.2231 2.03602 21.2349 2.04916 21.2349 2.06482C21.2349 2.08177 21.2487 2.09555 21.2656 2.09466C21.3375 2.0909 21.4205 2.07612 21.4887 2.07612C21.5568 2.07612 21.6398 2.0909 21.7117 2.09466C21.7286 2.09555 21.7424 2.08177 21.7424 2.06482C21.7424 2.04916 21.7542 2.03602 21.7697 2.03426C22.287 1.97574 22.7857 1.88007 23.2844 1.76567C23.3929 1.74029 23.4827 1.64016 23.5625 1.50062C23.8717 0.960051 23.5744 0.0537434 22.9526 0.019403C22.5622 0 22.1523 0 21.7619 0C21.6838 0 21.5862 0 21.5082 0C21.4301 0 21.3325 0 21.2544 0C20.8641 0 20.4542 0 20.0638 0.019403C19.4355 0.0541013 19.1273 0.95867 19.4297 1.51047C19.5058 1.64928 19.5911 1.74669 19.6929 1.76567Z" fill="#7AC9A4"/>
<path d="M21.5075 31.8207C21.5856 31.8207 21.6832 31.8207 21.7613 31.8207C22.4834 31.8013 23.2252 31.7819 23.9474 31.7431C24.2502 31.7273 24.5531 31.5561 24.8559 31.4094C24.971 31.3536 25.0329 31.2242 24.9951 31.102C24.9632 30.9986 24.87 30.9249 24.7619 30.92C24.4583 30.9063 24.1547 30.8926 23.851 30.8788C23.7275 30.8733 23.5375 30.8384 23.5375 30.7147C23.596 29.3953 23.596 29.3953 22.2102 29.2789C22.0571 29.2599 21.9227 29.2595 21.7703 29.2412C21.7651 29.2406 21.7613 29.2362 21.7613 29.231C21.7613 29.2253 21.7567 29.2207 21.751 29.2207C21.6747 29.2207 21.5822 29.2207 21.5075 29.2207C21.4326 29.2207 21.3398 29.2207 21.2635 29.2207C21.2581 29.2207 21.2538 29.225 21.2538 29.2304C21.2538 29.2358 21.2494 29.2401 21.244 29.2401C21.0919 29.2409 20.9577 29.2599 20.8048 29.2789C19.419 29.3953 19.419 29.3953 19.4775 30.7147C19.4775 30.8384 19.2875 30.8733 19.164 30.8788C18.8604 30.8926 18.5567 30.9063 18.2531 30.92C18.145 30.9249 18.0518 30.9986 18.0199 31.102C17.9821 31.2242 18.044 31.3536 18.1588 31.41C18.4569 31.5566 18.7493 31.7273 19.0677 31.7431C19.7871 31.7818 20.5066 31.8012 21.2454 31.8205C21.25 31.8206 21.2538 31.8244 21.2538 31.8291C21.2538 31.8347 21.259 31.8388 21.2645 31.8376C21.339 31.8207 21.4144 31.8207 21.5075 31.8207Z" fill="#7AC9A4"/>
<path d="M42.609 0.931558C42.0625 0.582304 41.3793 0.349469 40.7352 0.310663C36.6753 0.0972297 32.6153 0.271857 28.614 1.12559C28.1455 1.2226 27.638 1.1838 27.1696 1.28081C26.7597 1.37783 26.0375 1.55245 26.0375 1.74648C25.9985 2.27036 26.0961 2.94947 26.4279 3.33753C26.7207 3.68678 27.3648 3.88081 27.8723 3.91962C29.8827 4.01663 31.8736 4.01663 33.8841 4.07484C34.6443 4.09473 34.6624 4.92388 33.9197 5.0875C31.3751 5.64812 28.7548 5.82792 26.106 6.29098C25.3446 6.42409 24.7829 5.61424 25.1396 4.92857C25.6862 3.88081 25.2177 2.98827 24.0466 2.81365C23.2718 2.71738 22.4779 2.62111 21.7029 2.52485C21.6925 2.52356 21.6848 2.5148 21.6848 2.5044C21.6848 2.49302 21.6756 2.48376 21.6642 2.48453C21.6125 2.48808 21.5608 2.5032 21.5091 2.5032C21.4574 2.5032 21.4057 2.48808 21.354 2.48453C21.3427 2.48376 21.3335 2.49302 21.3335 2.5044C21.3335 2.5148 21.3257 2.52356 21.3154 2.52485C20.5404 2.62111 19.7464 2.71738 18.9717 2.81365C17.8006 2.96887 17.3321 3.88081 17.8786 4.92857C18.2439 5.60631 17.6722 6.41782 16.9144 6.2819C14.2649 5.80672 11.6439 5.6178 9.09864 5.06103C8.38503 4.90493 8.40395 4.07454 9.13419 4.05544C11.1446 3.99723 13.1355 3.99723 15.146 3.90022C15.6535 3.88081 16.2976 3.68678 16.5904 3.31813C16.9222 2.93007 17.0198 2.25096 16.9808 1.72708C16.9612 1.55245 16.2586 1.35842 15.8291 1.28081C15.3607 1.1838 14.8532 1.2226 14.3848 1.12559C10.3834 0.252454 6.34299 0.0778267 2.26356 0.310663C1.61943 0.330066 0.916755 0.582304 0.389747 0.931558C-0.156781 1.28081 -0.0982242 1.90171 0.428784 2.30917C1.42425 3.10469 2.28307 3.10469 3.35661 2.38678C3.5518 2.27036 3.76651 2.17335 3.98121 2.09574C5.25431 1.66881 7.97381 1.72116 9.8854 2.13979C10.3005 2.23068 10.2555 2.72186 9.83687 2.79424C8.39247 3.04648 6.94808 3.22111 5.54272 3.58977C4.37159 3.88081 4.19592 4.87036 5.05475 5.68529C5.33689 5.96575 5.24833 6.43897 4.86715 6.55285C4.28852 6.72572 3.74541 6.88644 3.21998 7.0823C2.41971 7.37335 2.30259 7.80022 2.81008 8.49872C2.91332 8.63984 3.02723 8.77459 3.14757 8.90719C3.54435 9.34437 3.47788 10.0159 2.98575 10.342C2.69297 10.536 2.36115 10.7107 2.08789 10.9241C1.1705 11.6032 1.22906 12.4569 2.14644 13.0196C2.21632 13.063 2.2901 13.1064 2.37828 13.1568C2.55724 13.259 2.52683 13.4758 2.38067 13.6211C1.91222 14.1256 0.955793 14.8435 1.07291 15.1539C1.52184 16.3957 1.38521 17.5987 1.44376 18.8211C1.48589 19.7423 1.64481 20.59 1.53613 21.5058C1.52051 21.6374 1.52174 21.7673 1.53788 21.8957C1.692 23.1212 1.60369 24.5912 2.08304 25.7296C2.16332 25.9202 2.28481 26.0963 2.42988 26.2639C3.31295 27.2844 2.68656 28.7514 3.41445 29.8878C3.45376 29.9491 3.49939 30.0115 3.5518 30.0748C4.07881 30.7151 4.74245 31.2584 4.50822 32.248C4.46918 32.442 4.66437 32.7719 4.84004 32.9077C6.16732 33.8584 7.47509 34.8868 8.89996 35.6823C9.9735 36.2838 10.9104 35.9734 11.6521 35.0032C12.2572 34.2077 12.8428 33.354 13.1746 32.442C14.1505 29.7062 15.0874 26.951 15.8682 24.1569C16.3519 22.416 17.4484 21.1568 18.622 19.8224C18.8495 19.5637 19.2964 19.7 19.323 20.0435C19.5373 22.2514 19.5572 22.4681 21.3237 22.5461C21.329 22.5463 21.3335 22.5507 21.3335 22.556C21.3335 22.5614 21.3379 22.5659 21.3434 22.5659C21.3986 22.5659 21.4539 22.5659 21.5091 22.5659C21.5644 22.5659 21.6196 22.5659 21.6749 22.5659C21.6804 22.5659 21.6848 22.5614 21.6848 22.556C21.6848 22.5507 21.6893 22.5463 21.6946 22.5461C23.4611 22.4681 23.4809 22.2514 23.6952 20.0435C23.722 19.698 24.1701 19.5599 24.3998 19.8193C25.5824 21.1549 26.666 22.4147 27.1501 24.1569C27.9308 26.951 28.8677 29.7062 29.8437 32.442C30.1755 33.3734 30.7611 34.2271 31.3661 35.0032C32.1079 35.9928 33.0643 36.2838 34.1183 35.6823C35.5432 34.8868 36.8509 33.8584 38.1782 32.9077C38.3734 32.7719 38.5686 32.442 38.51 32.248C38.2758 31.2584 38.9395 30.7345 39.4665 30.0748C39.5105 30.0201 39.5497 29.9661 39.5842 29.9129C40.3257 28.7692 39.7191 27.2837 40.6034 26.2465C40.7436 26.0819 40.8608 25.9092 40.9382 25.7224C41.4122 24.5799 41.3012 23.1172 41.4645 21.8912C41.4813 21.7654 41.4839 21.6384 41.4707 21.5099C41.3754 20.5887 41.5322 19.7463 41.5745 18.8211C41.6331 17.5987 41.4769 16.3957 41.9258 15.1539C42.0429 14.8435 41.0865 14.145 40.6181 13.6211C40.4917 13.4641 40.4474 13.2557 40.6224 13.1557C40.7098 13.1058 40.783 13.0627 40.8523 13.0196C41.7892 12.4569 41.8282 11.5838 40.9499 10.9241C40.6766 10.7107 40.3448 10.536 40.052 10.342C39.5599 10.0159 39.4934 9.34437 39.8902 8.90719C40.0105 8.77459 40.1245 8.63984 40.2277 8.49872C40.7352 7.81962 40.6181 7.39275 39.8178 7.0823C39.2923 6.88642 38.7492 6.72569 38.1704 6.55279C37.7816 6.43662 37.6806 5.95588 37.983 5.68529C38.8223 4.87036 38.6467 3.90022 37.4951 3.58977C36.0897 3.22111 34.6258 3.04648 33.2009 2.79424C32.7873 2.72275 32.7445 2.23546 33.1547 2.14652C35.0616 1.73304 37.7691 1.66914 39.0566 2.09574C39.2713 2.17335 39.486 2.25096 39.6812 2.38678C40.7547 3.10469 41.6135 3.10469 42.609 2.30917C43.097 1.8823 43.1555 1.28081 42.609 0.931558ZM5.95037 7.69114C5.96423 7.61493 6.01557 7.54917 6.08752 7.52048C7.45553 6.97501 8.84402 6.79816 10.3248 7.0435C12.9404 7.47036 15.5949 7.80022 18.2104 8.20768C18.7286 8.27206 18.8599 9.21899 18.4336 9.52044C18.3805 9.55801 18.3258 9.58152 18.269 9.58529C16.7856 9.72111 15.2631 9.97335 13.8187 9.72111C11.2139 9.28641 8.68325 8.55715 6.1184 7.94578C6.00322 7.91832 5.92919 7.80764 5.95037 7.69114ZM8.29488 10.6525C8.95852 10.9047 9.6612 11.0405 10.3444 11.2928C12.8623 12.2047 15.3412 11.6614 17.8396 11.2151C18.2452 11.1531 18.6346 11.4365 18.6608 11.846C18.7257 12.8598 18.4565 13.1183 17.215 13.3107C15.4388 13.5629 13.5845 13.7181 11.8083 13.5047C9.54408 13.2331 7.31893 12.5345 5.07427 12.0107C4.63842 11.9178 4.54975 11.3163 4.92181 11.0711C5.97121 10.3793 7.04559 10.1868 8.29488 10.6525ZM4.29351 16.1629C3.4004 15.8874 3.16102 14.6136 4.04953 14.3236C4.58241 14.1496 5.15738 14.1632 5.77695 14.3196C6.90904 14.6107 8.04113 14.8629 9.15371 15.251C11.9839 16.2211 14.7166 15.6972 17.4687 14.9017C17.4832 14.8976 17.4977 14.8938 17.5123 14.8902C17.9595 14.7802 18.2758 15.5592 17.8591 15.7554C16.6685 16.3569 15.4973 17.036 14.2286 17.3853C13.038 17.7151 11.7107 17.8898 10.52 17.7151C8.41199 17.3853 6.36251 16.7256 4.29351 16.1629ZM2.8296 22.0808C2.45874 21.5181 2.79056 20.9166 3.4542 20.9942C4.05929 21.0525 4.64485 21.2465 5.23042 21.4405C7.10423 22.0808 8.939 22.8181 10.8128 23.4002C11.8922 23.7268 12.2763 24.9623 11.1664 25.1614C10.533 25.275 9.85177 25.2232 9.11467 24.9525C7.26038 24.2539 5.44513 23.4972 3.62987 22.7405C3.33709 22.6241 3.02479 22.3719 2.8296 22.0808ZM9.07563 34.6345C8.95469 34.5813 8.83355 34.5283 8.71256 34.4745C7.48176 33.9272 8.21128 32.8497 9.50873 33.2118C10.3223 33.4388 10.864 34.6017 10.0431 34.8007C9.78785 34.8625 9.47572 34.8028 9.07563 34.6345ZM10.481 31.9569C8.76333 31.3554 7.08471 30.6763 5.38657 30.0166C5.2109 29.939 4.97667 29.8614 4.8986 29.7256C4.89586 29.7205 4.89316 29.7155 4.8905 29.7104C4.67582 29.2988 5.07482 28.5972 5.50368 28.7748C6.16732 29.0465 6.77241 29.4345 7.39701 29.7644C8.10334 30.1418 8.81767 30.4914 9.57069 30.6983C10.7999 31.036 11.6855 32.3742 10.481 31.9569ZM11.9839 28.8331C11.7887 29.0853 11.1837 29.2017 10.8518 29.0853C8.41199 28.3674 6.10877 27.339 4.03977 25.845C3.8641 25.7092 3.62987 25.5734 3.53228 25.3987C3.51819 25.3707 3.50694 25.3411 3.49796 25.3101C3.40029 24.9734 3.75305 24.5319 4.07881 24.6614C4.35207 24.7584 4.60582 24.9137 4.84004 25.0883C6.49914 26.4077 8.47055 26.9898 10.52 27.1062C11.3203 27.1644 12.1791 26.5629 12.9989 26.2331C13.2482 26.1339 13.4692 25.9363 13.698 25.7601C13.7669 25.707 13.8623 25.7094 13.9256 25.7688C13.9805 25.8202 13.9866 25.9063 13.9456 25.9694C13.3242 26.9265 12.6995 27.9159 11.9839 28.8331ZM18.6789 17.948C17.5078 18.8017 16.3366 19.6942 15.2241 20.645C14.1505 21.5569 13.038 21.9256 11.6326 21.4793C9.36841 20.7614 7.02615 20.1599 4.74245 19.442C4.10068 19.2294 3.52404 18.8063 2.92331 18.4537C2.82053 18.3934 2.76324 18.278 2.7867 18.1612C2.81371 18.0267 2.92841 17.9232 3.06462 17.9067C3.36804 17.87 3.68326 17.8129 3.96169 17.8898C5.91358 18.4719 7.86546 19.0734 9.79783 19.7525C11.2422 20.2569 12.55 20.0241 13.8187 19.3256C15.0382 18.6631 16.2576 18.0006 17.4995 17.3307C18.2943 16.9019 19.4087 17.416 18.6789 17.948ZM24.3198 17.948C23.5973 17.4212 24.6885 16.9039 25.4755 17.3284C26.7189 17.9991 27.9397 18.6624 29.1605 19.3256C30.4488 20.0241 31.7565 20.2569 33.1814 19.7525C35.1138 19.0734 37.0656 18.4913 39.0175 17.8898C39.296 17.8129 39.6112 17.87 39.9146 17.9067C40.0508 17.9232 40.1655 18.0267 40.1925 18.1612C40.216 18.278 40.1587 18.3934 40.0559 18.4537C39.4552 18.8063 38.8785 19.2294 38.2368 19.442C35.9531 20.1599 33.6303 20.742 31.3271 21.4599C29.9217 21.9062 28.8092 21.5375 27.7356 20.6256C26.6621 19.6942 25.491 18.8017 24.3198 17.948ZM33.9231 34.6345C33.5212 34.8147 33.2052 34.8779 32.9442 34.8099C32.123 34.5961 32.6695 33.4298 33.4866 33.2011C34.7856 32.8376 35.51 33.9266 34.2787 34.4773C34.1602 34.5303 34.0416 34.5824 33.9231 34.6345ZM38.0806 29.7256C38.0025 29.8614 37.7683 29.9584 37.5927 30.0166C35.8945 30.6763 34.2159 31.3554 32.4982 31.9569C31.3093 32.3751 32.1791 31.0424 33.3924 30.7016C34.1396 30.4918 34.8511 30.1399 35.5627 29.7644C36.1873 29.4345 36.7924 29.0465 37.456 28.7748C37.8921 28.5942 38.2943 29.2912 38.086 29.7147C38.0843 29.7183 38.0824 29.722 38.0806 29.7256ZM39.4469 25.3987C39.3493 25.5928 39.1346 25.7092 38.9395 25.845C36.8705 27.3584 34.5672 28.3674 32.1274 29.0853C31.7956 29.1823 31.1905 29.0659 30.9953 28.8331C30.2793 27.9153 29.6725 26.9253 29.0168 25.9501C28.9757 25.8891 28.9809 25.8123 29.0353 25.7627C29.0964 25.7069 29.1948 25.6891 29.2604 25.7397C29.4897 25.9162 29.711 26.1143 29.9608 26.2137C30.7806 26.5629 31.6394 27.145 32.4397 27.0868C34.4892 26.951 36.4606 26.3689 38.1197 25.0689C38.3539 24.8942 38.6076 24.739 38.8809 24.642C39.2106 24.5328 39.5709 24.9513 39.487 25.2883C39.4773 25.3273 39.4643 25.3642 39.4469 25.3987ZM40.1691 22.0808C39.9935 22.3525 39.6812 22.6047 39.3689 22.7405C37.5536 23.4972 35.7188 24.2734 33.8841 24.9525C33.1454 25.2318 32.4628 25.2846 31.8283 25.169C30.7022 24.9637 31.0903 23.7317 32.1859 23.4002C34.0793 22.8181 35.914 22.0808 37.7683 21.4405C38.3539 21.2465 38.9395 21.0525 39.5445 20.9942C40.2082 20.936 40.54 21.5181 40.1691 22.0808ZM38.9628 14.3128C39.8549 14.6093 39.6119 15.8949 38.7052 16.1435C36.6362 16.7062 34.5868 17.3659 32.4787 17.6957C31.2881 17.8898 29.9608 17.6957 28.7701 17.3659C27.5014 17.0166 26.3303 16.3375 25.1396 15.736C24.7321 15.5228 25.0381 14.7612 25.4848 14.8704C25.5 14.8741 25.515 14.878 25.53 14.8823C28.2822 15.6778 31.0148 16.2017 33.845 15.2316C34.9381 14.8629 36.0897 14.5913 37.2218 14.3002C37.8498 14.1441 38.4285 14.1352 38.9628 14.3128ZM38.0769 11.0711C38.449 11.3163 38.3603 11.9178 37.9245 12.0107C35.6798 12.5345 33.4547 13.2331 31.1905 13.5047C29.4143 13.7181 27.56 13.5629 25.7838 13.3107C24.5418 13.1343 24.2728 12.8652 24.338 11.8464C24.3643 11.4351 24.7592 11.1157 25.1592 11.2151C27.6576 11.6614 30.1365 12.1853 32.6544 11.2928C33.318 11.0599 34.0402 10.9047 34.7039 10.6525C35.9532 10.1868 37.0275 10.3793 38.0769 11.0711ZM37.0622 7.7055C37.0847 7.8134 37.0212 7.91686 36.914 7.9424C34.3434 8.55445 31.7901 9.28561 29.1996 9.72111C27.7552 9.95395 26.2327 9.72111 24.7493 9.58529C24.6927 9.58155 24.6377 9.55828 24.5838 9.52108C24.1432 9.2169 24.2765 8.2737 24.8078 8.20768C27.4429 7.80022 30.0779 7.45096 32.6934 7.0435C34.1691 6.79901 35.5532 6.97379 36.9166 7.51485C36.9952 7.54606 37.0449 7.62268 37.0622 7.7055Z" fill="#7AC9A4"/>
<path d="M35.0746 43.0115C33.2008 41.5757 30.9952 41.0906 28.6529 41.9443C27.9697 42.1965 27.5208 42.6428 27.4622 43.4383C27.4427 43.6906 27.1109 44.0398 26.8572 44.1368C26.1446 44.3911 25.3978 44.5604 24.6648 44.7561C24.5893 44.7762 24.5149 44.7194 24.5149 44.6412C24.5149 44.5941 24.4869 44.5517 24.4443 44.5317C23.9833 44.3154 23.5534 43.9797 23.0705 43.9428C22.6021 43.904 22.1531 43.8846 21.6847 43.8652C21.6261 43.8652 21.5676 43.8652 21.509 43.8652C21.4504 43.8652 21.3919 43.8652 21.3333 43.8652C20.8649 43.8652 20.3964 43.8846 19.9475 43.9428C19.4831 43.9982 19.0364 44.3172 18.5738 44.5318C18.531 44.5517 18.5031 44.5941 18.5031 44.6412C18.5031 44.7194 18.4287 44.7762 18.3532 44.7561C17.6202 44.5604 16.8734 44.3911 16.1608 44.1368C15.8876 44.0398 15.5753 43.6906 15.5558 43.4383C15.4972 42.6428 15.0483 42.1965 14.3651 41.9443C12.0228 41.0906 9.81722 41.5757 7.94341 43.0115C6.05009 44.4667 6.05009 47.2995 7.80678 48.5801C8.35331 48.9876 9.09502 49.1622 9.75866 49.3951C10.7346 49.7443 10.8712 49.9965 10.5785 50.9861C9.97337 52.8876 10.1295 53.2174 12.0814 53.6637C13.4477 53.9742 14.4627 54.6727 15.0287 55.9533C15.1263 56.1667 15.2239 56.5742 15.1263 56.6518C14.0723 57.4473 14.814 58.2234 15.1459 58.9607C16.2194 61.2697 17.8199 61.6383 19.7913 60.0861C20.0256 59.9115 20.2403 59.7174 20.455 59.5234C21.066 59.0028 21.913 59.0028 22.524 59.5234C22.7387 59.7174 22.9729 59.9115 23.1876 60.0861C25.159 61.6383 26.7596 61.2503 27.8331 58.9607C28.1844 58.2234 28.9066 57.4473 27.8526 56.6518C27.755 56.5742 27.8526 56.1667 27.9502 55.9533C28.5358 54.6921 29.5508 53.9742 30.8976 53.6637C32.8494 53.2174 33.0056 52.8876 32.4005 50.9861C32.0882 50.0159 32.2444 49.7443 33.2203 49.3951C33.8839 49.1622 34.6257 48.9876 35.1722 48.5801C36.9484 47.2995 36.9484 44.4667 35.0746 43.0115ZM19.4595 57.8742C19.3619 58.7085 18.874 59.1548 18.0542 59.1936C17.2149 59.2324 16.6879 58.7667 16.5512 57.9712C16.5468 57.9439 16.5427 57.9166 16.539 57.8893C16.4101 56.9451 17.4202 56.216 18.347 56.4383C19.0887 56.6324 19.5571 57.0398 19.4595 57.8742ZM26.4668 57.9906C26.3302 58.7861 25.8031 59.2518 24.9638 59.213C24.144 59.1742 23.6561 58.7279 23.5585 57.8936C23.4609 57.0398 23.9293 56.6518 24.6711 56.4771C25.5978 56.2548 26.6107 56.9844 26.4763 57.9279C26.4734 57.9488 26.4702 57.9697 26.4668 57.9906ZM27.4427 51.8398C26.701 53.5667 25.3933 54.8085 23.6951 55.604C23.3243 55.7786 22.8168 55.798 22.4069 55.7398C22.1595 55.702 21.9306 55.6642 21.7022 55.6263C21.6921 55.6246 21.6847 55.6159 21.6847 55.6056C21.6847 55.594 21.6753 55.5846 21.6637 55.5854C21.6121 55.589 21.5606 55.604 21.509 55.604C21.4609 55.604 21.4129 55.5909 21.3648 55.5862C21.3475 55.5846 21.3333 55.5987 21.3333 55.6161C21.3333 55.6315 21.3222 55.6447 21.307 55.6472C21.0802 55.6845 20.8366 55.7219 20.6111 55.7592C20.1817 55.8174 19.6938 55.798 19.3229 55.6234C17.6248 54.8279 16.317 53.5861 15.5753 51.8592C15.3996 51.4324 15.4191 50.7533 15.6534 50.3846C15.9852 49.8413 16.6293 49.7443 17.3125 50.0159C18.3665 50.4428 19.0691 51.1607 19.4986 52.2279C19.7718 52.907 20.1036 53.5861 20.494 54.207C20.7026 54.5652 21.0034 54.8135 21.3425 54.9518C21.3604 54.9592 21.3724 54.9765 21.3724 54.9958C21.3724 55.0278 21.404 55.0512 21.4354 55.0455C21.4618 55.0408 21.4882 55.0372 21.5145 55.0312C21.5365 55.0261 21.5596 55.0259 21.5811 55.0327C21.6092 55.0417 21.6372 55.0498 21.6653 55.055C21.6972 55.0609 21.7237 55.0344 21.7237 55.002C21.7237 54.9787 21.7375 54.9577 21.7586 54.9479C22.0957 54.7916 22.3945 54.5446 22.6021 54.207C22.9924 53.5861 23.3243 52.907 23.5975 52.2279C24.0269 51.1801 24.7296 50.4428 25.7836 50.0159C26.3369 49.7895 26.8766 49.8193 27.2444 50.1502C27.3967 50.2873 27.4917 50.4778 27.5292 50.6792C27.5973 51.0451 27.5773 51.5278 27.4427 51.8398Z" fill="#7AC9A4"/>
</svg>
