<svg width="55" height="55" viewBox="0 0 55 55" fill="none" xmlns="http://www.w3.org/2000/svg">
<path fill-rule="evenodd" clip-rule="evenodd" d="M41.6858 22.0985C41.6858 32.9163 32.9163 41.6858 22.0985 41.6858C11.2807 41.6858 2.51119 32.9163 2.51119 22.0985C2.51119 11.2807 11.2807 2.51119 22.0985 2.51119C32.9163 2.51119 41.6858 11.2807 41.6858 22.0985ZM35.9024 39.3563C32.1203 42.3854 27.321 44.197 22.0985 44.197C9.89384 44.197 0 34.3032 0 22.0985C0 9.89384 9.89384 0 22.0985 0C34.3032 0 44.197 9.89384 44.197 22.0985C44.197 27.7004 42.1126 32.8155 38.677 36.7104C38.7248 36.7471 38.7713 36.7863 38.8163 36.828L53.3823 50.3247C54.5044 51.3645 54.538 53.1283 53.4563 54.2101C52.3746 55.2918 50.6107 55.2582 49.571 54.1361L36.0742 39.57C36.0112 39.502 35.9539 39.4305 35.9024 39.3563Z" fill="#7AC9A4"/>
<mask id="mask0" mask-type="alpha" maskUnits="userSpaceOnUse" x="9" y="10" width="27" height="36">
<path d="M18.584 26.3674C18.584 25.674 19.1461 25.1118 19.8396 25.1118H24.3597C25.0532 25.1118 25.6153 25.674 25.6153 26.3674V45.9547H18.584V26.3674Z" fill="#7AC9A4"/>
<path d="M9.04102 19.0852C9.04102 18.3917 9.60317 17.8296 10.2966 17.8296H14.8168C15.5102 17.8296 16.0724 18.3917 16.0724 19.0852V45.955H9.04102V19.0852Z" fill="#7AC9A4"/>
<path d="M28.127 11.5515C28.127 10.858 28.6891 10.2959 29.3825 10.2959H33.9027C34.5961 10.2959 35.1583 10.858 35.1583 11.5515V45.9548H28.127V11.5515Z" fill="#7AC9A4"/>
</mask>
<g mask="url(#mask0)">
<path d="M40.6813 22.0985C40.6813 32.3615 32.3615 40.6813 22.0985 40.6813C11.8354 40.6813 3.51562 32.3615 3.51562 22.0985C3.51562 11.8354 11.8354 3.51562 22.0985 3.51562C32.3615 3.51562 40.6813 11.8354 40.6813 22.0985Z" fill="#7AC9A4"/>
</g>
</svg>
