<svg width="57" height="59" viewBox="0 0 57 59" fill="none" xmlns="http://www.w3.org/2000/svg">
<path fill-rule="evenodd" clip-rule="evenodd" d="M46.4874 4.67092C45.8742 5.73308 44.7296 6.29723 43.5833 6.22149L37.3409 16.2162C41.2354 18.7727 43.957 22.9692 44.5234 27.8239L51.0097 27.8604C51.5036 26.8603 52.5201 26.1593 53.7127 26.1246C55.4316 26.0746 56.8655 27.4276 56.9155 29.1464C56.9655 30.8653 55.6125 32.2992 53.8937 32.3492C52.6677 32.3848 51.5866 31.7068 51.0494 30.6913L44.6059 30.6549C44.46 33.1919 43.7279 35.5718 42.543 37.6611L49.8938 41.6772C50.8031 41.0315 52.0302 40.8969 53.0963 41.4322C54.633 42.2038 55.2533 44.0751 54.4817 45.6119C53.71 47.1486 51.8387 47.7689 50.302 46.9973C49.2057 46.4468 48.5758 45.3366 48.585 44.1875L40.9265 40.0034C38.2494 43.2332 34.3373 45.4023 29.9142 45.7867V51.2826C30.9222 51.798 31.6122 52.8467 31.6122 54.0565C31.6122 55.7761 30.2182 57.1701 28.4986 57.1701C26.779 57.1701 25.385 55.7761 25.385 54.0565C25.385 52.8464 26.0753 51.7976 27.0836 51.2823V45.7868C24.9127 45.5981 22.865 44.9796 21.0258 44.0167L14.7268 54.1021C15.3187 55.0474 15.3816 56.2804 14.7851 57.3137C13.9253 58.8029 12.021 59.3131 10.5318 58.4533C9.04261 57.5935 8.53237 55.6893 9.39217 54.2001C10.0055 53.1378 11.1503 52.5736 12.2968 52.6495L18.6429 42.4887C15.0332 39.6997 12.6382 35.4149 12.3866 30.563H5.93144C5.44715 31.5899 4.41668 32.3139 3.20408 32.3491C1.48521 32.3991 0.0512969 31.0462 0.00134014 29.3273C-0.0486166 27.6084 1.3043 26.1745 3.02317 26.1246C4.22891 26.0895 5.29443 26.7448 5.8404 27.7324H12.4851C13.0791 22.8823 15.8253 18.6974 19.7394 16.1623L14.8985 11.3214C13.8211 11.67 12.5913 11.4165 11.7356 10.5608C10.5197 9.34486 10.5197 7.37343 11.7356 6.1575C12.9516 4.94156 14.923 4.94156 16.1389 6.1575C16.9944 7.01297 17.248 8.2424 16.8997 9.31959L22.3662 14.7861C23.8415 14.1793 25.4265 13.785 27.0833 13.641V7.01282C26.0753 6.4974 25.3852 5.44872 25.3852 4.23887C25.3852 2.51928 26.7792 1.12527 28.4988 1.12527C30.2184 1.12527 31.6124 2.51928 31.6124 4.23887C31.6124 5.44897 30.9221 6.49783 29.9138 7.01313V13.6409C31.6497 13.7917 33.307 14.2175 34.8417 14.8743L41.153 4.76932C40.561 3.82391 40.4979 2.59069 41.0945 1.55732C41.9543 0.068108 43.8586 -0.442134 45.3478 0.417664C46.837 1.27746 47.3472 3.18171 46.4874 4.67092ZM21.0523 30.3344C23.1086 30.3344 24.7755 28.6674 24.7755 26.6111C24.7755 24.5548 23.1086 22.8879 21.0523 22.8879C18.996 22.8879 17.329 24.5548 17.329 26.6111C17.329 28.6674 18.996 30.3344 21.0523 30.3344ZM28.7564 20.3379C28.46 19.5287 28.8091 18.662 29.5188 18.1732C30.7576 17.3202 32.5059 17.9669 33.1808 19.311C33.4015 19.7507 33.6569 20.1986 33.9483 20.6217C34.2397 21.0448 34.567 21.4431 34.8991 21.8061C35.9143 22.9159 35.895 24.78 34.6563 25.6331C33.9467 26.1218 33.0124 26.139 32.3622 25.5735C31.7306 25.0243 30.9287 24.2219 30.2184 23.1905C29.508 22.159 29.0443 21.1238 28.7564 20.3379ZM20.3908 38.1681C20.8895 38.6662 21.6386 38.8181 22.2454 38.4593C22.8347 38.1108 23.5984 37.5838 24.3223 36.859C25.0463 36.1342 25.5724 35.3699 25.9202 34.7801C26.2783 34.173 26.1255 33.4241 25.6268 32.9259C24.7563 32.0565 23.2541 32.3184 22.5125 33.3C22.2699 33.6211 21.9983 33.9437 21.7012 34.241C21.4043 34.5383 21.082 34.8104 20.7612 35.0534C19.7805 35.7961 19.5204 37.2986 20.3908 38.1681ZM36.0205 38.3577C35.8122 39.3324 34.9366 39.9659 33.9407 40.0072C32.2026 40.0794 30.8893 38.3694 31.0566 36.6378C31.1112 36.0714 31.1371 35.4756 31.1124 34.8819C31.0878 34.2882 31.0126 33.6966 30.9111 33.1367C30.6008 31.425 31.7678 29.6119 33.5059 29.5397C34.5018 29.4983 35.4269 30.057 35.7153 31.0111C35.9954 31.9378 36.2861 33.2172 36.3462 34.6645C36.4063 36.1118 36.2227 37.4109 36.0205 38.3577Z" fill="#7AC9A4"/>
</svg>
