<svg width="52" height="63" viewBox="0 0 52 63" fill="none" xmlns="http://www.w3.org/2000/svg">
<path d="M4.35742 60.0139C4.35742 58.7771 5.36008 57.7744 6.59693 57.7744H48.9753C50.2122 57.7744 51.2148 58.7771 51.2148 60.0139C51.2148 61.2508 50.2122 62.2534 48.9753 62.2534H6.59693C5.36008 62.2534 4.35742 61.2508 4.35742 60.0139Z" fill="#7AC9A4"/>
<path fill-rule="evenodd" clip-rule="evenodd" d="M0.68779 42.9526C0.307934 42.9526 0 43.2606 0 43.6404V45.7102C0 46.0901 0.307934 46.398 0.68779 46.398H8.94127C10.2075 46.398 11.2339 47.4245 11.2339 48.6907L11.2339 57.5451C11.2339 58.8113 12.2603 59.8377 13.5265 59.8377H16.507C17.14 59.8377 17.6533 59.3245 17.6533 58.6914V48.6907C17.6533 47.4245 18.6797 46.398 19.9459 46.398H28.2536C28.6334 46.398 28.9413 46.0901 28.9413 45.7102V43.6404C28.9413 43.2606 28.6334 42.9526 28.2536 42.9526H0.68779Z" fill="#7AC9A4"/>
<path fill-rule="evenodd" clip-rule="evenodd" d="M31.5947 2.178C29.5112 0.975124 26.8471 1.68897 25.6443 3.77241L13.2144 25.3015C12.07 27.2837 12.6606 29.7915 14.5149 31.0664L13.0049 33.6819L19.6224 37.5025L21.1383 34.8769C23.147 35.7645 25.5436 35.0131 26.6665 33.0681L39.0964 11.539C40.2992 9.45554 39.5854 6.79145 37.502 5.58858L31.5947 2.178ZM26.3093 6.87993C27.5754 4.68683 30.3798 3.93542 32.5728 5.2016L34.3946 6.25337C34.4074 6.26076 34.4201 6.26819 34.4328 6.27568L34.4167 6.2664C32.2236 5.00021 29.4193 5.75162 28.1531 7.94472L18.2949 25.0196L16.451 23.955L26.3093 6.87993Z" fill="#7AC9A4"/>
<path d="M29.286 17.5713C33.0352 17.5713 36.7212 18.5373 39.9885 20.3761C43.2557 22.215 45.9941 24.8647 47.9395 28.0696C49.8849 31.2746 50.9717 34.9268 51.0951 38.6739C51.2185 42.4211 50.3743 46.1368 48.644 49.4629C46.9137 52.7889 44.3556 55.613 41.2164 57.6628C38.0772 59.7126 34.4628 60.9191 30.7217 61.1657C26.9806 61.4124 23.2391 60.691 19.8579 59.0711C16.4768 57.4512 13.57 54.9874 11.418 51.9174L14.3237 49.8805C16.1258 52.4513 18.5598 54.5144 21.3912 55.8709C24.2225 57.2273 27.3555 57.8314 30.4882 57.6249C33.6209 57.4183 36.6476 56.4081 39.2763 54.6916C41.905 52.9751 44.0471 50.6103 45.496 47.8251C46.9449 45.04 47.6518 41.9285 47.5485 38.7907C47.4451 35.6529 46.5351 32.5947 44.906 29.9109C43.277 27.2271 40.9839 25.0084 38.248 23.4686C35.5121 21.9287 32.4255 21.1198 29.286 21.1198V17.5713Z" fill="#7AC9A4"/>
</svg>
