<svg width="71" height="65" viewBox="0 0 71 65" fill="none" xmlns="http://www.w3.org/2000/svg">
<path fill-rule="evenodd" clip-rule="evenodd" d="M39.115 10.6572L11.1397 38.6325C7.21579 42.5564 7.21579 48.9183 11.1397 52.8421C15.0636 56.766 21.4255 56.766 25.3494 52.8421L53.3247 24.8668C57.2486 20.9429 57.2486 14.581 53.3247 10.6572C49.4008 6.73326 43.0389 6.73326 39.115 10.6572ZM9.36347 36.8563C4.4586 41.7611 4.4586 49.7135 9.36347 54.6184C14.2683 59.5232 22.2207 59.5232 27.1256 54.6184L55.1009 26.643C60.0058 21.7382 60.0058 13.7858 55.1009 8.88094C50.196 3.97607 42.2437 3.97607 37.3388 8.88094L9.36347 36.8563Z" fill="#7AC9A4"/>
<path fill-rule="evenodd" clip-rule="evenodd" d="M40.8908 40.8522L55.1001 26.6428C59.2692 22.4737 59.2692 15.7142 55.1001 11.545C50.931 7.37591 44.1715 7.37591 40.0023 11.545L25.793 25.7544L40.8908 40.8522Z" fill="#7AC9A4"/>
<path d="M24.4609 24.4224L26.2371 22.6462L28.0134 24.4224L26.2371 26.1986L24.4609 24.4224Z" fill="#7AC9A4"/>
<path fill-rule="evenodd" clip-rule="evenodd" d="M37.3853 48.4294C38.0305 49.9462 38.972 51.3682 40.2123 52.6085C45.3897 57.7859 53.7838 57.7859 58.9612 52.6086C64.1386 47.4312 64.1386 39.037 58.9612 33.8597C57.7208 32.6193 56.2989 31.6778 54.7821 31.0326L37.3853 48.4294ZM35.1964 47.954C35.9124 50.1429 37.1403 52.2008 38.8802 53.9407C44.7933 59.8538 54.3803 59.8538 60.2934 53.9407C66.2065 48.0276 66.2065 38.4406 60.2934 32.5275C58.5535 30.7876 56.4955 29.5597 54.3067 28.8437L35.1964 47.954Z" fill="#7AC9A4"/>
<path fill-rule="evenodd" clip-rule="evenodd" d="M59.1945 53.3739L45.3788 39.5582L46.7109 38.2261L60.5266 52.0417L59.1945 53.3739Z" fill="#7AC9A4"/>
</svg>
