<svg width="67" height="52" viewBox="0 0 67 52" fill="none" xmlns="http://www.w3.org/2000/svg">
<path fill-rule="evenodd" clip-rule="evenodd" d="M28.4229 16.0004C28.8962 16.0125 29.3191 16.3136 29.5048 16.7706L34.6248 29.3733L36.0873 25.4279C36.2679 24.9407 36.7151 24.6197 37.2134 24.6197H45.7918C46.4591 24.6197 47 25.1872 47 25.8873C47 26.5874 46.4591 27.1549 45.7918 27.1549H38.0399L35.8022 33.1918C35.6241 33.6722 35.1866 33.9916 34.6954 33.9998C34.2043 34.0081 33.7572 33.7035 33.5646 33.2294L28.322 20.3251L25.4932 26.4408C25.2911 26.8776 24.869 27.1549 24.4062 27.1549H1.20823C0.540941 27.1549 0 26.5874 0 25.8873C0 25.1872 0.540941 24.6197 1.20823 24.6197H23.6495L27.3063 16.7142C27.513 16.2673 27.9495 15.9882 28.4229 16.0004Z" fill="#7AC9A4"/>
<path d="M23.0861 36.4751L24.0145 35.6159L23.0861 36.4751Z" fill="#7AC9A4" stroke="#7AC9A4" stroke-width="10" stroke-linecap="round" stroke-linejoin="round"/>
<mask id="path-3-inside-1" fill="white">
<path fill-rule="evenodd" clip-rule="evenodd" d="M65.5427 21.0157C65.5427 21.0157 65.5427 21.0156 65.5427 21.0156C65.5432 21.0146 65.5437 21.0137 65.5441 21.0127C65.5443 21.0124 65.5444 21.0122 65.5445 21.0119C65.7386 20.6119 65.9149 20.2019 66.0724 19.7827C66.0724 19.7827 66.0724 19.7827 66.0724 19.7827C66.4791 18.7365 66.7429 17.7573 66.8357 16.865C66.8372 16.8508 66.8386 16.8367 66.84 16.8226C66.84 16.8226 66.84 16.8226 66.84 16.8226C66.9454 16.1157 67 15.3925 67 14.6566C67 6.56197 60.3942 0 52.2456 0C52.2389 0 52.2323 4.37585e-06 52.2256 1.31248e-05C46.7078 0.00727049 41.8988 3.02363 39.374 7.48696C39.373 7.48866 39.372 7.49037 39.3711 7.49206C38.8763 8.35458 37.1237 8.35457 36.6289 7.49204C36.628 7.49035 36.627 7.48866 36.626 7.48696C34.0984 3.01874 29.2813 0 23.7544 0C15.6058 0 9 6.56197 9 14.6566C9 16.0633 9.19949 17.4237 9.57192 18.7114C9.57783 18.7318 9.58378 18.7523 9.58978 18.7727C10.0848 20.9636 11.4307 23.5531 13.2828 26.3075C13.3772 26.4479 13.4729 26.5886 13.5698 26.7298C13.6525 26.8502 13.7557 26.9521 13.8731 27.0327C14.0487 27.1531 14.2559 27.2256 14.4732 27.24C14.4999 27.2418 14.5267 27.2427 14.5536 27.2427H15.5158C16.1066 27.2427 16.4472 26.5729 16.1063 26.0936C15.9028 25.8077 15.706 25.5253 15.5158 25.2468C15.4206 25.1073 15.327 24.9687 15.2352 24.8311C15.2305 24.8242 15.2259 24.8173 15.2213 24.8103C14.6819 24.0014 14.2015 23.2265 13.784 22.4904C12.8638 20.8679 12.2487 19.4339 11.979 18.24C11.9676 18.1899 11.9547 18.1401 11.9402 18.0908C11.6208 17.0042 11.4486 15.8525 11.4486 14.6566C11.4486 7.90534 16.9581 2.43238 23.7544 2.43238C28.3627 2.43238 32.3831 4.95003 34.4916 8.67842C34.4978 8.68941 34.504 8.70041 34.5102 8.71142C34.9919 9.56943 35.3725 10.4911 35.636 11.4606C35.9244 12.5218 36.8935 13.259 38 13.259C39.1065 13.259 40.0756 12.5218 40.364 11.4606C40.6275 10.4911 41.0081 9.56946 41.4898 8.71145C41.496 8.70044 41.5022 8.68942 41.5084 8.67842C42.0385 7.74107 42.6894 6.88024 43.4402 6.11671C45.6756 3.84324 48.7959 2.43238 52.2456 2.43238C59.0419 2.43238 64.5514 7.90534 64.5514 14.6566C64.5514 15.2728 64.5057 15.8769 64.4178 16.4661C64.4119 16.5061 64.4069 16.5462 64.403 16.5864C64.342 17.2074 64.1485 17.9797 63.7882 18.9065C63.7849 18.915 63.7817 18.9234 63.7785 18.9319C63.6469 19.2821 63.4995 19.6247 63.3372 19.959C63.335 19.9636 63.3328 19.9681 63.3306 19.9726C63.3278 19.9786 63.325 19.9845 63.3222 19.9905C61.0503 24.8463 55.819 31.2041 50.3843 37.0184C47.0284 40.6086 43.6878 43.8953 41.1087 46.3535C40.9319 46.522 40.7587 46.6866 40.5894 46.8471M38.0721 10.5707C38.0477 10.5711 38.0237 10.5713 38 10.5713C37.9763 10.5713 37.9523 10.5711 37.9279 10.5707C37.9527 10.6557 37.9767 10.741 38 10.8266C38.0233 10.741 38.0473 10.6557 38.0721 10.5707ZM65.5427 21.0157C65.5427 21.0157 65.5426 21.0158 65.5426 21.0158C65.5425 21.016 65.5424 21.0163 65.5423 21.0165C63.0899 26.2576 57.6095 32.8634 52.1787 38.6734C48.5487 42.5569 44.9429 46.0828 42.2797 48.607C40.9522 49.8652 39.8569 50.8763 39.1068 51.5611C38.4705 52.142 37.5223 52.1464 36.8788 51.5734C36.1196 50.8973 35.0119 49.8993 33.6714 48.6578C30.6142 45.8262 26.3321 41.7148 22.2118 37.262C21.8577 36.8794 21.5052 36.4946 21.1551 36.1083C21.1502 36.1029 21.1454 36.0975 21.1405 36.0922C20.6885 35.5933 20.7359 34.825 21.2416 34.3799C21.7427 33.9388 22.5058 33.9803 22.9604 34.4651C22.9629 34.4677 22.9652 34.4703 22.9676 34.4729C22.9695 34.4749 22.9714 34.4769 22.9732 34.479C22.9738 34.4796 22.9743 34.4802 22.9749 34.4808C22.9941 34.502 23.0132 34.5231 23.0324 34.5443C23.3582 34.9033 23.6858 35.2607 24.0145 35.6159C24.0484 35.6525 24.0823 35.6891 24.1162 35.7257C28.1466 40.073 32.3343 44.0936 35.3413 46.8787C35.343 46.8803 35.3447 46.8819 35.3464 46.8834C36.829 48.2518 39.1201 48.2365 40.5861 46.8502"/>
</mask>
<path fill-rule="evenodd" clip-rule="evenodd" d="M65.5427 21.0157C65.5427 21.0157 65.5427 21.0156 65.5427 21.0156C65.5432 21.0146 65.5437 21.0137 65.5441 21.0127C65.5443 21.0124 65.5444 21.0122 65.5445 21.0119C65.7386 20.6119 65.9149 20.2019 66.0724 19.7827C66.0724 19.7827 66.0724 19.7827 66.0724 19.7827C66.4791 18.7365 66.7429 17.7573 66.8357 16.865C66.8372 16.8508 66.8386 16.8367 66.84 16.8226C66.84 16.8226 66.84 16.8226 66.84 16.8226C66.9454 16.1157 67 15.3925 67 14.6566C67 6.56197 60.3942 0 52.2456 0C52.2389 0 52.2323 4.37585e-06 52.2256 1.31248e-05C46.7078 0.00727049 41.8988 3.02363 39.374 7.48696C39.373 7.48866 39.372 7.49037 39.3711 7.49206C38.8763 8.35458 37.1237 8.35457 36.6289 7.49204C36.628 7.49035 36.627 7.48866 36.626 7.48696C34.0984 3.01874 29.2813 0 23.7544 0C15.6058 0 9 6.56197 9 14.6566C9 16.0633 9.19949 17.4237 9.57192 18.7114C9.57783 18.7318 9.58378 18.7523 9.58978 18.7727C10.0848 20.9636 11.4307 23.5531 13.2828 26.3075C13.3772 26.4479 13.4729 26.5886 13.5698 26.7298C13.6525 26.8502 13.7557 26.9521 13.8731 27.0327C14.0487 27.1531 14.2559 27.2256 14.4732 27.24C14.4999 27.2418 14.5267 27.2427 14.5536 27.2427H15.5158C16.1066 27.2427 16.4472 26.5729 16.1063 26.0936C15.9028 25.8077 15.706 25.5253 15.5158 25.2468C15.4206 25.1073 15.327 24.9687 15.2352 24.8311C15.2305 24.8242 15.2259 24.8173 15.2213 24.8103C14.6819 24.0014 14.2015 23.2265 13.784 22.4904C12.8638 20.8679 12.2487 19.4339 11.979 18.24C11.9676 18.1899 11.9547 18.1401 11.9402 18.0908C11.6208 17.0042 11.4486 15.8525 11.4486 14.6566C11.4486 7.90534 16.9581 2.43238 23.7544 2.43238C28.3627 2.43238 32.3831 4.95003 34.4916 8.67842C34.4978 8.68941 34.504 8.70041 34.5102 8.71142C34.9919 9.56943 35.3725 10.4911 35.636 11.4606C35.9244 12.5218 36.8935 13.259 38 13.259C39.1065 13.259 40.0756 12.5218 40.364 11.4606C40.6275 10.4911 41.0081 9.56946 41.4898 8.71145C41.496 8.70044 41.5022 8.68942 41.5084 8.67842C42.0385 7.74107 42.6894 6.88024 43.4402 6.11671C45.6756 3.84324 48.7959 2.43238 52.2456 2.43238C59.0419 2.43238 64.5514 7.90534 64.5514 14.6566C64.5514 15.2728 64.5057 15.8769 64.4178 16.4661C64.4119 16.5061 64.4069 16.5462 64.403 16.5864C64.342 17.2074 64.1485 17.9797 63.7882 18.9065C63.7849 18.915 63.7817 18.9234 63.7785 18.9319C63.6469 19.2821 63.4995 19.6247 63.3372 19.959C63.335 19.9636 63.3328 19.9681 63.3306 19.9726C63.3278 19.9786 63.325 19.9845 63.3222 19.9905C61.0503 24.8463 55.819 31.2041 50.3843 37.0184C47.0284 40.6086 43.6878 43.8953 41.1087 46.3535C40.9319 46.522 40.7587 46.6866 40.5894 46.8471M38.0721 10.5707C38.0477 10.5711 38.0237 10.5713 38 10.5713C37.9763 10.5713 37.9523 10.5711 37.9279 10.5707C37.9527 10.6557 37.9767 10.741 38 10.8266C38.0233 10.741 38.0473 10.6557 38.0721 10.5707ZM65.5427 21.0157C65.5427 21.0157 65.5426 21.0158 65.5426 21.0158C65.5425 21.016 65.5424 21.0163 65.5423 21.0165C63.0899 26.2576 57.6095 32.8634 52.1787 38.6734C48.5487 42.5569 44.9429 46.0828 42.2797 48.607C40.9522 49.8652 39.8569 50.8763 39.1068 51.5611C38.4705 52.142 37.5223 52.1464 36.8788 51.5734C36.1196 50.8973 35.0119 49.8993 33.6714 48.6578C30.6142 45.8262 26.3321 41.7148 22.2118 37.262C21.8577 36.8794 21.5052 36.4946 21.1551 36.1083C21.1502 36.1029 21.1454 36.0975 21.1405 36.0922C20.6885 35.5933 20.7359 34.825 21.2416 34.3799C21.7427 33.9388 22.5058 33.9803 22.9604 34.4651C22.9629 34.4677 22.9652 34.4703 22.9676 34.4729C22.9695 34.4749 22.9714 34.4769 22.9732 34.479C22.9738 34.4796 22.9743 34.4802 22.9749 34.4808C22.9941 34.502 23.0132 34.5231 23.0324 34.5443C23.3582 34.9033 23.6858 35.2607 24.0145 35.6159C24.0484 35.6525 24.0823 35.6891 24.1162 35.7257C28.1466 40.073 32.3343 44.0936 35.3413 46.8787C35.343 46.8803 35.3447 46.8819 35.3464 46.8834C36.829 48.2518 39.1201 48.2365 40.5861 46.8502" fill="#7AC9A4"/>
<path d="M69.1388 24.4896C71.0574 22.5035 71.0026 19.3382 69.0166 17.4196C67.0305 15.501 63.8651 15.5557 61.9465 17.5418L69.1388 24.4896ZM36.9932 43.3732C35.0747 45.3593 35.1294 48.5247 37.1155 50.4432C39.1016 52.3618 42.2669 52.3071 44.1855 50.321L36.9932 43.3732ZM36.99 43.3763C35.0714 45.3623 35.1262 48.5277 37.1122 50.4463C39.0983 52.3649 42.2637 52.3101 44.1822 50.3241L36.99 43.3763ZM44.1855 50.321L69.1388 24.4896L61.9465 17.5418L36.9932 43.3732L44.1855 50.321ZM44.1822 50.3241L69.1388 24.4896L61.9466 17.5418L36.99 43.3763L44.1822 50.3241ZM65.5427 21.0157L56.5252 16.693C56.4873 16.7721 56.4505 16.8517 56.4146 16.9317L65.5427 21.0157ZM65.5427 21.0156L56.5476 16.6466C56.5401 16.662 56.5327 16.6774 56.5253 16.6929L65.5427 21.0156ZM65.5441 21.0127L74.5392 25.3818L74.5445 25.3709L65.5441 21.0127ZM65.5445 21.0119L56.5475 16.6468L56.5442 16.6537L65.5445 21.0119ZM66.0724 19.7827L75.433 23.3012C75.475 23.1895 75.515 23.0771 75.5529 22.964L66.0724 19.7827ZM66.0724 19.7827L56.7519 16.1596C56.6951 16.3056 56.6418 16.4529 56.592 16.6014L66.0724 19.7827ZM66.8357 16.865L76.7821 17.8993L76.7822 17.8982L66.8357 16.865ZM66.84 16.8226L76.7922 17.799C76.8241 17.4745 76.84 17.1487 76.84 16.8226H66.84ZM66.84 16.8226L56.9494 15.3476C56.8766 15.8359 56.84 16.3289 56.84 16.8226H66.84ZM52.2256 1.31248e-05L52.2388 10H52.2388L52.2256 1.31248e-05ZM39.374 7.48696L30.6701 2.56335L30.669 2.5653L39.374 7.48696ZM39.3711 7.49206L30.6988 2.51293L30.697 2.51606L39.3711 7.49206ZM36.6289 7.49204L27.9531 12.465L27.9548 12.4679L36.6289 7.49204ZM36.626 7.48696L45.3312 2.56555L45.3299 2.56331L36.626 7.48696ZM9.57192 18.7114L-0.0344086 21.4896L-0.0343771 21.4897L9.57192 18.7114ZM9.58978 18.7727L19.3439 16.5687C19.2971 16.3616 19.2437 16.156 19.1838 15.9522L9.58978 18.7727ZM13.2828 26.3075L4.98437 31.8874L4.98438 31.8874L13.2828 26.3075ZM13.5698 26.7298L21.8131 21.0686L21.8131 21.0686L13.5698 26.7298ZM13.8731 27.0327L8.21549 35.2783L8.21553 35.2784L13.8731 27.0327ZM14.4732 27.24L15.135 17.262L15.1349 17.262L14.4732 27.24ZM16.1063 26.0936L7.95785 31.8905L7.95786 31.8905L16.1063 26.0936ZM15.5158 25.2468L23.7749 19.6087L23.7749 19.6087L15.5158 25.2468ZM15.2352 24.8311L23.552 19.2787L23.5517 19.2781L15.2352 24.8311ZM15.2213 24.8103L23.5413 19.2626L23.5411 19.2623L15.2213 24.8103ZM13.784 22.4904L5.08576 27.424L5.08576 27.424L13.784 22.4904ZM11.979 18.24L21.7331 16.036L21.7331 16.036L11.979 18.24ZM11.9402 18.0908L21.5342 15.2702L21.5342 15.2702L11.9402 18.0908ZM34.4916 8.67842L25.7871 13.601L25.7871 13.601L34.4916 8.67842ZM34.5102 8.71142L25.7902 13.6066L25.7904 13.6069L34.5102 8.71142ZM35.636 11.4606L25.9861 14.0834L25.9861 14.0834L35.636 11.4606ZM40.364 11.4606L50.0139 14.0834V14.0834L40.364 11.4606ZM41.4898 8.71145L50.2096 13.6069L50.2097 13.6067L41.4898 8.71145ZM41.5084 8.67842L32.8039 3.75585L32.8038 3.75608L41.5084 8.67842ZM43.4402 6.11671L50.5707 13.1278L50.5707 13.1278L43.4402 6.11671ZM64.4178 16.4661L74.3084 17.9413L74.3084 17.941L64.4178 16.4661ZM64.403 16.5864L54.4509 15.6087L54.4508 15.6091L64.403 16.5864ZM63.7882 18.9065L54.4676 15.2834L54.4672 15.2844L63.7882 18.9065ZM63.7785 18.9319L54.4179 15.4135L54.4179 15.4135L63.7785 18.9319ZM63.3372 19.959L54.3414 15.5913L54.3407 15.5928L63.3372 19.959ZM63.3306 19.9726L54.3089 15.6588L54.3077 15.6613L63.3306 19.9726ZM63.3222 19.9905L54.2647 15.7523L54.2645 15.7527L63.3222 19.9905ZM50.3843 37.0184L57.6898 43.847H57.6898L50.3843 37.0184ZM41.1087 46.3535L48.008 53.5922L48.0081 53.5922L41.1087 46.3535ZM33.7103 39.5891C29.7018 43.3883 29.5322 49.7177 33.3314 53.7262C37.1305 57.7346 43.4599 57.9043 47.4684 54.1051L33.7103 39.5891ZM38.0721 10.5707L47.6722 13.3703C48.5619 10.3194 47.9485 7.0273 46.0198 4.50157C44.091 1.97585 41.0766 0.517239 37.8991 0.572198L38.0721 10.5707ZM37.9279 10.5707L38.1009 0.572198C34.9234 0.517239 31.909 1.97585 29.9802 4.50157C28.0515 7.0273 27.4381 10.3194 28.3278 13.3703L37.9279 10.5707ZM38 10.8266L28.3501 13.4495C29.5337 17.8042 33.4873 20.8266 38 20.8266C42.5127 20.8266 46.4663 17.8042 47.6499 13.4495L38 10.8266ZM65.5426 21.0158L74.6252 25.2C74.6405 25.1667 74.6557 25.1333 74.6707 25.0998L65.5426 21.0158ZM65.5423 21.0165L74.5998 25.2546C74.6082 25.2367 74.6166 25.2187 74.6249 25.2006L65.5423 21.0165ZM52.1787 38.6734L44.8732 31.8448L44.8732 31.8448L52.1787 38.6734ZM42.2797 48.607L35.4006 41.3489L35.4006 41.349L42.2797 48.607ZM39.1068 51.5611L45.8491 58.9463L45.8491 58.9463L39.1068 51.5611ZM36.8788 51.5734L43.5291 44.1053L43.5291 44.1053L36.8788 51.5734ZM33.6714 48.6578L40.4666 41.3212L40.4666 41.3212L33.6714 48.6578ZM22.2118 37.262L29.5516 30.4703L29.5515 30.4702L22.2118 37.262ZM21.1551 36.1083L28.5649 29.393L28.5638 29.3918L21.1551 36.1083ZM21.1405 36.0922L28.5522 29.379L28.5513 29.378L21.1405 36.0922ZM21.2416 34.3799L27.8492 41.8859L27.8493 41.8858L21.2416 34.3799ZM22.9604 34.4651L15.6657 41.3053L15.6676 41.3073L22.9604 34.4651ZM22.9676 34.4729L15.6155 41.2512L15.6157 41.2515L22.9676 34.4729ZM22.9732 34.479L30.3728 27.7524L30.3682 27.7474L22.9732 34.479ZM22.9749 34.4808L30.3846 27.7654L30.38 27.7604L22.9749 34.4808ZM23.0324 34.5443L30.4382 27.8246L30.438 27.8244L23.0324 34.5443ZM24.0145 35.6159L16.6747 42.4076L16.6748 42.4077L24.0145 35.6159ZM24.1162 35.7257L16.7829 42.5244L16.7829 42.5244L24.1162 35.7257ZM35.3413 46.8787L28.5461 54.2153L28.5493 54.2183L35.3413 46.8787ZM35.3464 46.8834L42.1285 39.5348L42.1256 39.5321L35.3464 46.8834ZM47.4569 54.116C51.4697 50.3214 51.6466 43.9922 47.852 39.9794C44.0574 35.9666 37.7282 35.7897 33.7154 39.5843L47.4569 54.116ZM74.5601 25.3384C74.5947 25.2662 74.6246 25.2017 74.6493 25.1471C74.674 25.0927 74.6947 25.0459 74.7105 25.0095C74.7185 24.9912 74.7255 24.9749 74.7314 24.9612C74.7373 24.9475 74.7423 24.9357 74.7462 24.9266C74.75 24.9176 74.7531 24.9103 74.755 24.9059C74.7559 24.9036 74.7567 24.9018 74.7572 24.9007C74.7574 24.9001 74.7576 24.8997 74.7577 24.8994C74.7578 24.8992 74.7578 24.8991 74.7579 24.899C74.7579 24.899 74.7579 24.899 74.7579 24.899C74.7579 24.899 74.7579 24.899 74.7579 24.8989C74.7579 24.8989 74.7579 24.8989 74.7579 24.8989C74.7581 24.8984 74.7567 24.9018 74.755 24.9059C74.7531 24.9103 74.75 24.9176 74.7462 24.9266C74.7423 24.9357 74.7373 24.9475 74.7314 24.9612C74.7255 24.9749 74.7185 24.9912 74.7105 25.0095C74.6947 25.0458 74.6741 25.0926 74.6494 25.147C74.6246 25.2016 74.5948 25.2661 74.5602 25.3383L56.5253 16.6929C56.4907 16.7651 56.4608 16.8296 56.4361 16.8842C56.4114 16.9386 56.3907 16.9855 56.3749 17.0218C56.3669 17.0401 56.3599 17.0564 56.354 17.0701C56.3481 17.0838 56.3431 17.0956 56.3392 17.1047C56.3354 17.1137 56.3323 17.121 56.3304 17.1254C56.3295 17.1277 56.3287 17.1295 56.3282 17.1306C56.328 17.1312 56.3278 17.1317 56.3277 17.1319C56.3276 17.1321 56.3276 17.1322 56.3275 17.1323C56.3275 17.1323 56.3275 17.1323 56.3275 17.1323C56.3275 17.1324 56.3275 17.1324 56.3275 17.1324C56.3275 17.1324 56.3275 17.1324 56.3275 17.1324C56.3272 17.133 56.3287 17.1295 56.3304 17.1255C56.3323 17.121 56.3354 17.1137 56.3392 17.1047C56.3431 17.0956 56.3481 17.0838 56.354 17.0701C56.3599 17.0564 56.3669 17.0401 56.3749 17.0218C56.3907 16.9855 56.4113 16.9387 56.436 16.8843C56.4608 16.8297 56.4906 16.7652 56.5252 16.693L74.5601 25.3384ZM74.5378 25.3846C74.5351 25.3902 74.533 25.3946 74.5317 25.3972C74.5306 25.3995 74.5296 25.4015 74.5299 25.4009C74.5299 25.4008 74.5302 25.4002 74.5306 25.3994C74.531 25.3986 74.5316 25.3973 74.5324 25.3957C74.5339 25.3927 74.5363 25.3878 74.5392 25.3818L56.549 16.6437C56.5517 16.6382 56.5539 16.6338 56.5551 16.6312C56.5563 16.6288 56.5572 16.6269 56.5569 16.6275C56.5569 16.6275 56.5566 16.6282 56.5562 16.6289C56.5558 16.6297 56.5552 16.631 56.5544 16.6326C56.5529 16.6357 56.5506 16.6406 56.5476 16.6466L74.5378 25.3846ZM74.5445 25.3709C74.5468 25.366 74.5488 25.362 74.55 25.3595C74.5506 25.3582 74.5511 25.3572 74.5514 25.3565C74.5516 25.3562 74.5517 25.3559 74.5518 25.3557C74.5518 25.3556 74.5519 25.3556 74.5519 25.3555C74.5519 25.3555 74.5519 25.3554 74.5519 25.3554C74.5521 25.3551 74.5512 25.3569 74.5502 25.3591C74.549 25.3614 74.5472 25.3653 74.5449 25.3701L56.5442 16.6537C56.5418 16.6586 56.5399 16.6626 56.5387 16.6651C56.538 16.6664 56.5375 16.6674 56.5372 16.6681C56.5371 16.6684 56.5369 16.6687 56.5368 16.6689C56.5368 16.669 56.5368 16.669 56.5367 16.6691C56.5367 16.6691 56.5367 16.6692 56.5367 16.6692C56.5365 16.6696 56.5374 16.6677 56.5384 16.6656C56.5396 16.6632 56.5415 16.6593 56.5438 16.6546L74.5445 25.3709ZM74.5415 25.377C74.869 24.702 75.1668 24.0095 75.433 23.3012L56.7118 16.2643C56.663 16.3942 56.6082 16.5218 56.5475 16.6468L74.5415 25.377ZM75.5529 22.964C75.5396 23.0036 75.5271 23.04 75.5157 23.0729C75.5042 23.1058 75.4935 23.136 75.4838 23.163C75.4741 23.19 75.4651 23.2145 75.4572 23.2362C75.4492 23.2579 75.4419 23.2774 75.4356 23.2942C75.4293 23.3111 75.4237 23.3259 75.419 23.3382C75.4143 23.3505 75.4103 23.361 75.4072 23.369C75.4042 23.377 75.4017 23.3834 75.4002 23.3873C75.3988 23.3908 75.3977 23.3938 75.3978 23.3933C75.3978 23.3933 75.3979 23.3933 75.3979 23.3933C75.3979 23.3933 75.3979 23.3933 75.3979 23.3932C75.3979 23.3932 75.3979 23.3931 75.398 23.393C75.3981 23.3927 75.3982 23.3923 75.3984 23.3918C75.3988 23.3909 75.3994 23.3893 75.4002 23.3873C75.4017 23.3834 75.4042 23.377 75.4072 23.369C75.4103 23.361 75.4143 23.3505 75.419 23.3382C75.4237 23.3259 75.4293 23.311 75.4356 23.2942C75.4419 23.2774 75.4492 23.2579 75.4572 23.2362C75.4652 23.2145 75.4741 23.1899 75.4838 23.1629C75.4935 23.1359 75.5042 23.1057 75.5157 23.0728C75.5272 23.0399 75.5397 23.0035 75.5529 22.9639L56.592 16.6014C56.6052 16.5618 56.6177 16.5254 56.6292 16.4925C56.6407 16.4596 56.6514 16.4294 56.6611 16.4024C56.6708 16.3754 56.6797 16.3509 56.6877 16.3292C56.6957 16.3075 56.7029 16.288 56.7093 16.2711C56.7156 16.2543 56.7212 16.2395 56.7259 16.2272C56.7306 16.2149 56.7346 16.2044 56.7377 16.1963C56.7407 16.1884 56.7432 16.1819 56.7447 16.1781C56.7461 16.1746 56.7472 16.1715 56.747 16.172C56.747 16.172 56.747 16.1721 56.747 16.1721C56.747 16.1721 56.747 16.1721 56.747 16.1721C56.747 16.1722 56.7469 16.1723 56.7469 16.1724C56.7468 16.1727 56.7466 16.1731 56.7464 16.1736C56.7461 16.1745 56.7454 16.1761 56.7447 16.1781C56.7432 16.182 56.7407 16.1884 56.7376 16.1964C56.7346 16.2044 56.7305 16.2149 56.7259 16.2272C56.7212 16.2395 56.7156 16.2543 56.7092 16.2712C56.7029 16.288 56.6957 16.3075 56.6877 16.3292C56.6797 16.3509 56.6708 16.3755 56.6611 16.4025C56.6514 16.4295 56.6407 16.4596 56.6292 16.4925C56.6177 16.5255 56.6052 16.5619 56.5919 16.6015L75.5529 22.964ZM75.393 23.4058C76.0151 21.8054 76.5707 19.9323 76.7821 17.8993L56.8894 15.8306C56.9041 15.6884 56.9208 15.646 56.902 15.7175C56.8836 15.7872 56.84 15.9327 56.7519 16.1596L75.393 23.4058ZM76.7822 17.8982C76.7856 17.8655 76.7889 17.8324 76.7922 17.799L56.8878 15.8462C56.8883 15.841 56.8888 15.8362 56.8892 15.8317L76.7822 17.8982ZM76.84 16.8226C76.84 16.9801 76.8363 17.1444 76.8279 17.3149C76.8195 17.4857 76.8064 17.6604 76.7882 17.8386C76.7792 17.9275 76.7689 18.0166 76.7573 18.1058C76.7458 18.195 76.7331 18.2838 76.7192 18.372C76.7054 18.4602 76.6905 18.5472 76.6748 18.633C76.659 18.7188 76.6424 18.8026 76.6252 18.8843C76.6079 18.9661 76.5902 19.045 76.5723 19.1211C76.5543 19.1971 76.5362 19.2696 76.5184 19.3384C76.4826 19.476 76.4481 19.5965 76.4183 19.6961C76.4034 19.7457 76.3896 19.7901 76.3776 19.8283C76.3656 19.8664 76.355 19.8992 76.3466 19.9251C76.3382 19.9506 76.3313 19.9713 76.3271 19.984C76.325 19.9905 76.3232 19.9957 76.3221 19.9989C76.3212 20.0018 76.3203 20.0043 76.3205 20.0038C76.3205 20.0039 76.3205 20.0037 76.3206 20.0035C76.3207 20.0033 76.3208 20.003 76.3209 20.0026C76.3212 20.0018 76.3216 20.0005 76.3222 19.9989C76.3232 19.9957 76.325 19.9905 76.3271 19.984C76.3313 19.9713 76.3382 19.9506 76.3466 19.925C76.355 19.8992 76.3656 19.8664 76.3776 19.8283C76.3896 19.7901 76.4034 19.7457 76.4183 19.6961C76.4481 19.5965 76.4826 19.476 76.5184 19.3384C76.5362 19.2696 76.5543 19.1971 76.5723 19.1211C76.5902 19.045 76.6079 18.966 76.6252 18.8843C76.6424 18.8026 76.659 18.7188 76.6748 18.633C76.6905 18.5472 76.7054 18.4602 76.7192 18.372C76.7331 18.2837 76.7458 18.195 76.7573 18.1058C76.7689 18.0165 76.7792 17.9275 76.7883 17.8385C76.8065 17.6603 76.8195 17.4857 76.8279 17.3149C76.8363 17.1444 76.84 16.9801 76.84 16.8226H56.84C56.84 16.6651 56.8437 16.5008 56.8521 16.3302C56.8605 16.1595 56.8736 15.9848 56.8918 15.8066C56.9008 15.7177 56.9111 15.6286 56.9227 15.5394C56.9342 15.4502 56.9469 15.3614 56.9608 15.2732C56.9746 15.1849 56.9895 15.0979 57.0052 15.0122C57.021 14.9264 57.0376 14.8426 57.0548 14.7608C57.0721 14.6791 57.0898 14.6002 57.1077 14.5241C57.1257 14.448 57.1438 14.3755 57.1616 14.3068C57.1974 14.1691 57.2319 14.0487 57.2617 13.9491C57.2766 13.8995 57.2904 13.8551 57.3024 13.8169C57.3144 13.7788 57.325 13.746 57.3334 13.7201C57.3418 13.6945 57.3487 13.6738 57.3529 13.6611C57.355 13.6547 57.3568 13.6495 57.3579 13.6463C57.3588 13.6434 57.3597 13.6409 57.3595 13.6413C57.3595 13.6413 57.3595 13.6415 57.3594 13.6416C57.3593 13.6418 57.3592 13.6422 57.3591 13.6426C57.3588 13.6434 57.3584 13.6447 57.3578 13.6463C57.3568 13.6495 57.355 13.6547 57.3529 13.6611C57.3487 13.6739 57.3418 13.6945 57.3334 13.7201C57.325 13.746 57.3144 13.7788 57.3024 13.8169C57.2904 13.8551 57.2766 13.8995 57.2617 13.9491C57.2319 14.0487 57.1974 14.1692 57.1616 14.3068C57.1438 14.3756 57.1257 14.4481 57.1077 14.5241C57.0898 14.6002 57.0721 14.6791 57.0548 14.7609C57.0376 14.8426 57.021 14.9264 57.0052 15.0122C56.9895 15.098 56.9746 15.185 56.9608 15.2732C56.9469 15.3614 56.9342 15.4502 56.9227 15.5394C56.9111 15.6286 56.9008 15.7177 56.8917 15.8066C56.8735 15.9848 56.8605 16.1595 56.8521 16.3303C56.8437 16.5008 56.84 16.6651 56.84 16.8226H76.84ZM76.7306 18.2975C76.9086 17.104 77 15.8878 77 14.6566H57C57 14.8972 56.9822 15.1275 56.9494 15.3476L76.7306 18.2975ZM77 14.6566C77 0.976494 65.8542 -10 52.2456 -10V10C54.9342 10 57 12.1474 57 14.6566H77ZM52.2456 -10C52.2345 -10 52.2235 -9.99999 52.2125 -9.99998L52.2388 10C52.241 10 52.2433 10 52.2456 10V-10ZM52.2125 -9.99998C42.9745 -9.98783 34.9068 -4.92635 30.6701 2.56335L48.0779 12.4106C48.8907 10.9736 50.4411 10.0024 52.2388 10L52.2125 -9.99998ZM48.0433 12.4712C48.0553 12.4504 48.0672 12.4295 48.079 12.4086L30.669 2.5653C30.6788 2.54781 30.6888 2.53036 30.6988 2.51294L48.0433 12.4712ZM27.9548 12.4679C30.7171 17.2834 35.6218 18.1389 37.9999 18.1389C40.378 18.139 45.2827 17.2835 48.0451 12.4681L30.697 2.51606C32.9646 -1.43686 36.7456 -1.86106 38.0001 -1.86105C39.2545 -1.86105 43.0355 -1.4368 45.3031 2.51624L27.9548 12.4679ZM27.9209 12.4084C27.9354 12.434 27.9471 12.4545 27.9531 12.465L45.3048 2.51912C45.3088 2.52619 45.3186 2.54331 45.3312 2.56555L27.9209 12.4084ZM23.7544 10C25.5555 10 27.1083 10.9719 27.9221 12.4106L45.3299 2.56331C41.0886 -4.93445 33.0072 -10 23.7544 -10V10ZM23.7544 -10C10.1458 -10 -1 0.976494 -1 14.6566H19C19 12.1474 21.0658 10 23.7544 10V-10ZM-1 14.6566C-1 17.0131 -0.665213 19.3085 -0.0344086 21.4896L19.1782 15.9332C19.0642 15.5389 19 15.1134 19 14.6566H-1ZM-0.0343771 21.4897C-0.0244293 21.5241 -0.0143785 21.5586 -0.00422382 21.5931L19.1838 15.9522C19.1819 15.9459 19.1801 15.9396 19.1782 15.9331L-0.0343771 21.4897ZM-0.164331 20.9766C0.742709 24.991 2.91719 28.8131 4.98437 31.8874L21.5813 20.7276C19.9443 18.293 19.4269 16.9363 19.3439 16.5687L-0.164331 20.9766ZM4.98438 31.8874C5.09744 32.0556 5.21153 32.2234 5.32659 32.391L21.8131 21.0686C21.7342 20.9538 21.657 20.8401 21.5813 20.7276L4.98438 31.8874ZM19.5307 18.787C20.4058 19.3874 21.1858 20.1553 21.8131 21.0686L5.32658 32.391C6.11918 33.5451 7.10562 34.5168 8.21549 35.2783L19.5307 18.787ZM15.1349 17.262C16.7075 17.3662 18.226 17.8918 19.5307 18.7869L8.21553 35.2784C9.87137 36.4145 11.8043 37.085 13.8115 37.2181L15.1349 17.262ZM14.5536 17.2427C14.7477 17.2427 14.9416 17.2491 15.135 17.262L13.8114 37.2181C14.0582 37.2345 14.3057 37.2427 14.5536 37.2427V17.2427ZM15.5158 17.2427H14.5536V37.2427H15.5158V17.2427ZM7.95786 31.8905C3.64154 25.8232 7.89085 17.2427 15.5158 17.2427V37.2427C24.3223 37.2427 29.2529 27.3226 24.2547 20.2968L7.95786 31.8905ZM7.25679 30.8849C7.48479 31.2189 7.71861 31.5542 7.95785 31.8905L24.2547 20.2968C24.0871 20.0612 23.9271 19.8318 23.7749 19.6087L7.25679 30.8849ZM6.91832 30.3836C7.0297 30.5504 7.14254 30.7175 7.2568 30.8849L23.7749 19.6087C23.6986 19.497 23.6244 19.387 23.552 19.2787L6.91832 30.3836ZM6.90124 30.358C6.90678 30.3663 6.91261 30.3751 6.91867 30.3841L23.5517 19.2781C23.5485 19.2733 23.5451 19.2682 23.5413 19.2626L6.90124 30.358ZM5.08576 27.424C5.63896 28.3993 6.24911 29.3801 6.90146 30.3583L23.5411 19.2623C23.1146 18.6227 22.7641 18.0537 22.4823 17.5568L5.08576 27.424ZM2.22485 20.4439C2.79885 22.9843 3.92888 25.3843 5.08576 27.424L22.4823 17.5568C22.1686 17.0037 21.9639 16.5821 21.8384 16.2873C21.7077 15.9802 21.7038 15.9065 21.7331 16.036L2.22485 20.4439ZM21.7331 16.036C21.6749 15.7787 21.6086 15.5233 21.5342 15.2702L2.34624 20.9114C2.30084 20.7569 2.26035 20.601 2.22486 20.4439L21.7331 16.036ZM21.5342 15.2702C21.4811 15.0897 21.4486 14.8874 21.4486 14.6566H1.44862C1.44862 16.8175 1.76042 18.9187 2.34624 20.9114L21.5342 15.2702ZM21.4486 14.6566C21.4486 13.4908 22.4181 12.4324 23.7544 12.4324V-7.56762C11.4981 -7.56762 1.44862 2.31986 1.44862 14.6566H21.4486ZM43.1961 3.75586C39.3731 -3.00432 32.0871 -7.56762 23.7544 -7.56762V12.4324C24.6382 12.4324 25.3931 12.9044 25.7871 13.601L43.1961 3.75586ZM43.2301 3.81625C43.2184 3.79545 43.2071 3.77528 43.1961 3.7558L25.7871 13.601C25.7885 13.6035 25.7896 13.6054 25.7902 13.6066L43.2301 3.81625ZM45.2859 8.83787C44.8036 7.06319 44.1076 5.37928 43.2299 3.81595L25.7904 13.6069C25.8761 13.7596 25.9414 13.919 25.9861 14.0834L45.2859 8.83787ZM38 3.25901C41.3664 3.25901 44.3804 5.50598 45.2859 8.83787L25.9861 14.0834C27.4685 19.5377 32.4206 23.259 38 23.259V3.25901ZM30.7141 8.83787C31.6196 5.50598 34.6336 3.25901 38 3.25901V23.259C43.5794 23.259 48.5315 19.5377 50.0139 14.0834L30.7141 8.83787ZM32.77 3.816C31.8923 5.37933 31.1964 7.06321 30.7141 8.83787L50.0139 14.0834C50.0586 13.919 50.1239 13.7596 50.2096 13.6069L32.77 3.816ZM32.8038 3.75608C32.7921 3.77675 32.7808 3.79684 32.7699 3.81623L50.2097 13.6067C50.2112 13.604 50.2123 13.6021 50.213 13.6008L32.8038 3.75608ZM36.3097 -0.894411C34.9511 0.487309 33.7692 2.04901 32.8039 3.75585L50.2129 13.601C50.3078 13.4331 50.4278 13.2732 50.5707 13.1278L36.3097 -0.894411ZM52.2456 -7.56762C46.0162 -7.56762 40.3551 -5.00868 36.3097 -0.894405L50.5707 13.1278C50.9961 12.6952 51.5755 12.4324 52.2456 12.4324V-7.56762ZM52.2456 12.4324C53.5819 12.4324 54.5514 13.4908 54.5514 14.6566H74.5514C74.5514 2.31986 64.5019 -7.56762 52.2456 -7.56762V12.4324ZM54.5514 14.6566C54.5514 14.7775 54.5425 14.8887 54.5272 14.9912L74.3084 17.941C74.4689 16.8652 74.5514 15.7681 74.5514 14.6566H54.5514ZM54.5272 14.991C54.4966 15.1965 54.4711 15.4025 54.4509 15.6087L74.355 17.5641C74.3427 17.6898 74.3271 17.8156 74.3084 17.9413L54.5272 14.991ZM54.4508 15.6091C54.4803 15.3092 54.5248 15.1336 54.5328 15.103C54.5421 15.0675 54.5291 15.1252 54.4676 15.2834L73.1087 22.5297C73.687 21.042 74.1792 19.3547 74.3551 17.5637L54.4508 15.6091ZM54.4672 15.2844C54.451 15.3261 54.4345 15.3692 54.4179 15.4135L73.1391 22.4503C73.1288 22.4777 73.1188 22.5038 73.1092 22.5286L54.4672 15.2844ZM54.4179 15.4135C54.3953 15.4735 54.3699 15.5328 54.3414 15.5913L72.3329 24.3268C72.6291 23.7167 72.8984 23.0907 73.1391 22.4503L54.4179 15.4135ZM54.3407 15.5928C54.3308 15.6132 54.3202 15.6353 54.3089 15.6588L72.3524 24.2863C72.3454 24.3008 72.3392 24.3139 72.3336 24.3252L54.3407 15.5928ZM54.3077 15.6613C54.2922 15.6938 54.2779 15.7242 54.2647 15.7523L72.3796 24.2288C72.3721 24.2449 72.3633 24.2634 72.3535 24.2839L54.3077 15.6613ZM54.2645 15.7527C52.7354 19.021 48.5303 24.3576 43.0788 30.1897L57.6898 43.847C63.1078 38.0506 69.3651 30.6717 72.3798 24.2284L54.2645 15.7527ZM43.0788 30.1897C39.8932 33.5978 36.6976 36.7432 34.2093 39.1148L48.0081 53.5922C50.678 51.0474 54.1636 47.6194 57.6898 43.847L43.0788 30.1897ZM34.2093 39.1148C34.0394 39.2768 33.8729 39.435 33.7103 39.5891L47.4684 54.1051C47.6445 53.9382 47.8245 53.7672 48.008 53.5922L34.2093 39.1148ZM38 20.5713C38.0819 20.5713 38.1636 20.5706 38.245 20.5692L37.8991 0.572198C37.9319 0.571631 37.9655 0.57133 38 0.57133V20.5713ZM37.755 20.5692C37.8364 20.5706 37.9181 20.5713 38 20.5713V0.57133C38.0345 0.57133 38.0681 0.571631 38.1009 0.572198L37.755 20.5692ZM47.6499 8.20378C47.6106 8.05903 47.5699 7.91481 47.528 7.77112L28.3278 13.3703C28.3355 13.3966 28.3429 13.423 28.3501 13.4495L47.6499 8.20378ZM28.472 7.77112C28.4301 7.91482 28.3894 8.05904 28.3501 8.20375L47.6499 13.4495C47.6571 13.423 47.6645 13.3966 47.6722 13.3703L28.472 7.77112ZM74.6707 25.0998C74.6391 25.1703 74.6105 25.2321 74.5863 25.2833C74.5622 25.3345 74.5411 25.378 74.5248 25.4113C74.5166 25.4281 74.5093 25.443 74.5031 25.4554C74.4969 25.4679 74.4916 25.4786 74.4875 25.4868C74.4834 25.4949 74.4801 25.5015 74.4781 25.5055C74.4763 25.5091 74.4747 25.5123 74.475 25.5117C74.475 25.5117 74.475 25.5117 74.475 25.5117C74.475 25.5117 74.475 25.5117 74.475 25.5117C74.475 25.5117 74.475 25.5117 74.475 25.5116C74.475 25.5116 74.4751 25.5115 74.4752 25.5113C74.4753 25.5111 74.4755 25.5107 74.4757 25.5102C74.4762 25.5092 74.4771 25.5075 74.4781 25.5055C74.4801 25.5015 74.4834 25.4949 74.4875 25.4868C74.4916 25.4785 74.4969 25.4679 74.5031 25.4554C74.5093 25.4429 74.5166 25.428 74.5248 25.4112C74.5411 25.378 74.5622 25.3345 74.5863 25.2833C74.6105 25.232 74.6392 25.1702 74.6707 25.0997L56.4146 16.9317C56.4462 16.8613 56.4748 16.7995 56.499 16.7482C56.5231 16.697 56.5442 16.6535 56.5605 16.6202C56.5687 16.6034 56.576 16.5886 56.5822 16.5761C56.5884 16.5636 56.5937 16.553 56.5978 16.5447C56.6019 16.5366 56.6052 16.53 56.6072 16.526C56.609 16.5224 56.6106 16.5193 56.6103 16.5198C56.6103 16.5198 56.6103 16.5198 56.6103 16.5198C56.6103 16.5198 56.6103 16.5198 56.6103 16.5198C56.6103 16.5198 56.6103 16.5199 56.6103 16.5199C56.6103 16.52 56.6102 16.5201 56.6101 16.5202C56.61 16.5204 56.6098 16.5208 56.6095 16.5214C56.609 16.5223 56.6082 16.524 56.6072 16.526C56.6052 16.53 56.6019 16.5366 56.5978 16.5448C56.5937 16.553 56.5884 16.5637 56.5822 16.5761C56.576 16.5886 56.5687 16.6035 56.5604 16.6203C56.5442 16.6536 56.5231 16.6971 56.4989 16.7483C56.4747 16.7996 56.4461 16.8614 56.4146 16.9318L74.6707 25.0998ZM74.6249 25.2006C74.6175 25.2166 74.6115 25.2295 74.6079 25.2372C74.6061 25.2412 74.6046 25.2444 74.6037 25.2463C74.6029 25.248 74.6022 25.2495 74.6023 25.2492C74.6023 25.2492 74.6023 25.2492 74.6023 25.2492C74.6023 25.2492 74.6023 25.2492 74.6024 25.2492C74.6024 25.2491 74.6024 25.2491 74.6024 25.249C74.6025 25.2489 74.6026 25.2487 74.6027 25.2484C74.6029 25.2479 74.6033 25.2471 74.6038 25.2461C74.6047 25.2441 74.6062 25.2409 74.6081 25.2369C74.6117 25.2291 74.6178 25.2161 74.6252 25.2L56.4601 16.8316C56.4674 16.8156 56.4734 16.8028 56.477 16.7951C56.4789 16.7911 56.4803 16.7879 56.4812 16.786C56.482 16.7843 56.4827 16.7828 56.4826 16.7831C56.4826 16.7831 56.4826 16.7831 56.4826 16.7831C56.4826 16.7831 56.4826 16.7831 56.4826 16.7831C56.4826 16.7832 56.4825 16.7832 56.4825 16.7833C56.4824 16.7834 56.4824 16.7836 56.4822 16.7839C56.482 16.7844 56.4816 16.7852 56.4812 16.7862C56.4802 16.7882 56.4787 16.7914 56.4769 16.7954C56.4732 16.8032 56.4672 16.8162 56.4598 16.8323L74.6249 25.2006ZM59.4842 45.5021C64.9006 39.7074 71.4053 32.0818 74.5998 25.2546L56.4848 16.7783C54.7746 20.4334 50.3184 26.0194 44.8732 31.8448L59.4842 45.5021ZM49.1587 55.865C51.9143 53.2533 55.6735 49.5788 59.4842 45.5021L44.8732 31.8448C41.4239 35.535 37.9714 38.9124 35.4006 41.3489L49.1587 55.865ZM35.4006 41.349C34.1242 42.5588 33.075 43.5272 32.3644 44.176L45.8491 58.9463C46.6388 58.2254 47.7802 57.1716 49.1587 55.865L35.4006 41.349ZM32.3644 44.176C35.5246 41.2909 40.359 41.2823 43.5291 44.1053L30.2285 59.0416C34.6855 63.0105 41.4165 62.9931 45.8491 58.9463L32.3644 44.176ZM43.5291 44.1053C42.8118 43.4665 41.753 42.5126 40.4666 41.3212L26.8763 55.9944C28.2709 57.2861 29.4274 58.3282 30.2285 59.0416L43.5291 44.1053ZM14.872 44.0537C19.2299 48.7633 23.714 53.0654 26.8763 55.9944L40.4666 41.3212C37.5144 38.5869 33.4343 34.6663 29.5516 30.4703L14.872 44.0537ZM13.7453 42.8235C14.1196 43.2365 14.4955 43.6468 14.872 44.0538L29.5515 30.4702C29.22 30.1119 28.8909 29.7527 28.5649 29.393L13.7453 42.8235ZM28.5638 29.3918C28.5587 29.3861 28.5553 29.3824 28.5522 29.379L13.7289 42.8054C13.7354 42.8127 13.7418 42.8196 13.7464 42.8247L28.5638 29.3918ZM28.5513 29.378C31.8879 33.0608 31.4827 38.6872 27.8492 41.8859L14.634 26.8739C9.98915 30.9629 9.48913 38.1258 13.7297 42.8063L28.5513 29.378ZM27.8493 41.8858C24.2525 45.0521 18.8648 44.7169 15.6657 41.3053L30.2552 27.625C26.1469 23.2437 19.2329 22.8254 14.634 26.874L27.8493 41.8858ZM15.6676 41.3073C15.6489 41.2874 15.6315 41.2686 15.6155 41.2512L30.3198 27.6946C30.299 27.672 30.2768 27.648 30.2533 27.623L15.6676 41.3073ZM15.6157 41.2515C15.5989 41.2332 15.5857 41.2188 15.5783 41.2106L30.3682 27.7474C30.357 27.7351 30.3401 27.7166 30.3195 27.6943L15.6157 41.2515ZM15.5737 41.2056C15.5747 41.2067 15.5725 41.2042 15.5698 41.2012L30.38 27.7604C30.3762 27.7562 30.3728 27.7525 30.3728 27.7524L15.5737 41.2056ZM30.438 27.8244C30.4208 27.8054 30.4032 27.7859 30.3846 27.7654L15.5653 41.1963C15.585 41.218 15.6057 41.2409 15.6268 41.2641L30.438 27.8244ZM31.3544 28.8243C31.0467 28.4918 30.7411 28.1584 30.4382 27.8246L15.6266 41.264C15.9752 41.6481 16.3248 42.0295 16.6747 42.4076L31.3544 28.8243ZM31.4495 28.927C31.4181 28.8931 31.3864 28.8589 31.3543 28.8242L16.6748 42.4077C16.7104 42.4462 16.7465 42.4851 16.7829 42.5244L31.4495 28.927ZM42.1365 39.5422C39.2341 36.8539 35.2455 33.0215 31.4495 28.927L16.7829 42.5244C21.0477 47.1245 25.4345 51.3333 28.5461 54.2153L42.1365 39.5422ZM28.5493 54.2183C28.5491 54.2181 28.5489 54.2179 28.5497 54.2186C28.5501 54.2191 28.5513 54.2202 28.5527 54.2215C28.5555 54.224 28.5607 54.2288 28.5671 54.2348L42.1256 39.5321C42.1303 39.5365 42.1339 39.5397 42.1349 39.5407C42.1355 39.5412 42.1358 39.5415 42.1355 39.5412C42.1353 39.5411 42.1343 39.5401 42.1332 39.5392L28.5493 54.2183ZM28.5642 54.2321C33.9167 59.172 42.1748 59.1109 47.4569 54.116L33.7154 39.5843C36.0654 37.3621 39.7413 37.3316 42.1285 39.5348L28.5642 54.2321Z" fill="#7AC9A4" mask="url(#path-3-inside-1)"/>
</svg>
